<?xml version="1.0" standalone="no"?>
<!DOCTYPE svg PUBLIC "-//W3C//DTD SVG 20010904//EN"
 "http://www.w3.org/TR/2001/REC-SVG-20010904/DTD/svg10.dtd">
<svg version="1.0" xmlns="http://www.w3.org/2000/svg"
 width="980.000000pt" height="980.000000pt" viewBox="0 0 980.000000 980.000000"
 preserveAspectRatio="xMidYMid meet">
<metadata>
Created by potrace 1.14, written by Peter Selinger 2001-2017
</metadata>
<g transform="translate(0.000000,980.000000) scale(0.100000,-0.100000)"
fill="#000000" stroke="none">
<path d="M7123 9716 c-173 -223 -378 -626 -467 -919 -54 -178 -95 -368 -128
-592 -9 -66 -13 -225 -12 -595 0 -426 3 -547 22 -775 44 -551 54 -760 49
-1030 -9 -484 -76 -804 -236 -1132 -76 -155 -241 -408 -329 -503 l-58 -63
-466 457 c-492 482 -1378 1380 -1378 1396 0 15 142 124 272 211 147 97 290
177 391 220 l78 32 627 -625 c626 -623 694 -688 745 -707 54 -21 67 1 92 149
9 52 23 126 31 164 l14 69 -472 476 c-450 452 -577 586 -566 596 2 2 49 10
104 17 66 9 235 13 506 13 l407 0 -4 35 c-2 19 -7 71 -10 115 -3 44 -12 153
-21 241 l-17 161 -236 7 c-251 8 -542 -4 -741 -30 -658 -85 -1170 -335 -1659
-809 -545 -529 -818 -1062 -925 -1805 -48 -332 -53 -727 -17 -1360 27 -481 38
-1080 23 -1285 -35 -471 -186 -934 -431 -1322 -41 -65 -71 -122 -71 -138 0
-20 31 -58 132 -162 145 -148 220 -213 247 -213 37 0 244 323 356 555 181 376
273 723 317 1200 20 214 16 855 -7 1215 -24 364 -28 1141 -7 1340 49 466 215
894 490 1263 l65 89 924 -924 c507 -507 923 -924 923 -924 0 -6 -192 -143
-265 -188 -109 -69 -388 -211 -431 -220 -44 -10 -93 13 -173 78 -36 29 -327
313 -645 630 -319 317 -585 576 -592 576 -18 0 -29 -44 -66 -267 l-33 -192
451 -453 c248 -249 457 -464 463 -477 7 -13 9 -27 4 -32 -11 -11 -292 -26
-642 -35 l-263 -7 7 -141 c9 -190 23 -350 34 -379 13 -33 40 -37 280 -37 443
0 833 48 1151 139 365 106 711 285 1015 527 141 113 426 398 539 539 308 387
487 784 585 1298 54 282 55 1011 1 1662 -41 498 -52 923 -29 1165 43 465 173
856 408 1230 50 80 91 151 91 159 0 15 -368 391 -382 391 -4 0 -33 -33 -65
-74z"/>
<path d="M7402 8591 c-28 -65 -68 -219 -81 -316 l-11 -79 537 -539 c414 -414
535 -540 523 -547 -48 -27 -340 -49 -748 -57 l-334 -6 6 -27 c2 -15 12 -119
21 -231 9 -112 18 -224 21 -248 l6 -43 391 5 c316 4 420 9 537 25 461 64 861
206 1238 438 119 74 292 199 292 212 0 16 -378 382 -394 382 -9 0 -56 -26
-104 -58 -147 -98 -413 -242 -447 -242 -20 0 -130 106 -838 808 -318 314 -582
572 -586 572 -5 0 -18 -22 -29 -49z"/>
<path d="M1875 3293 c-447 -20 -945 -149 -1347 -350 -155 -78 -416 -241 -498
-312 l-35 -30 191 -191 c105 -104 199 -190 208 -190 9 0 49 22 89 49 83 55
221 136 355 206 l92 49 663 -661 c417 -415 680 -670 710 -688 33 -19 55 -25
72 -21 28 7 33 22 86 249 l33 137 -510 513 c-454 456 -584 591 -584 609 0 3
39 13 88 22 185 34 369 48 704 53 l337 5 -4 77 c-3 42 -10 162 -16 266 -6 105
-13 192 -15 195 -16 16 -380 24 -619 13z"/>
</g>
</svg>
